# Blender v2.83.0 OBJ File: ''
# www.blender.org
mtllib piramide.mtl
o Cube
v 0.000000 1.000000 -0.114316
v -1.181647 -1.000000 -1.000000
v 0.000000 -1.000000 1.271510
v 1.181647 -1.000000 -1.000000
vt 0.375000 0.000000
vt 0.625000 0.250000
vt 0.375000 0.250000
vt 0.125000 0.500000
vt 0.375000 0.500000
vt 0.125000 0.750000
vt 0.625000 0.750000
vt 0.375000 0.750000
vt 0.625000 0.500000
vn -0.8450 -0.3046 -0.4396
vn 0.0000 1.0000 0.0000
vn 0.8450 -0.3046 -0.4396
vn 0.0000 -0.4049 0.9144
usemtl Material
s off
f 3/1/1 1/2/1 4/3/1
f 4/4/2 2/5/2 3/6/2
f 2/5/3 1/7/3 3/8/3
f 4/3/4 1/9/4 2/5/4
